<?xml version="1.0" encoding="UTF-8"?>
<svg width="67px" height="67px" viewBox="0 0 67 67" version="1.1" xmlns="http://www.w3.org/2000/svg" xmlns:xlink="http://www.w3.org/1999/xlink">
    <!-- Generator: Sketch 40.1 (33804) - http://www.bohemiancoding.com/sketch -->
    <title>church</title>
    <desc>Created with Sketch.</desc>
    <defs></defs>
    <g id="Page-1" stroke="none" stroke-width="1" fill="none" fill-rule="evenodd">
        <g id="Artboard" transform="translate(-92.000000, -5.000000)" stroke="#FFFFFF">
            <g id="church" transform="translate(93.000000, 6.000000)">
                <g id="Group" transform="translate(14.218750, 14.218750)" stroke-width="2">
                    <polygon id="Shape" points="28.4186005 19.1070856 28.4186005 12.2643342 18.3265557 7.44046875 8.14310462 12.2643342 8.14310462 19.1412636 0 22.9978125 0 36.5625 36.5625 36.5625 36.5625 22.9978125"></polygon>
                    <path d="M14.6242052,36.5625 L14.6242052,26.8257473 C14.6242052,24.9864946 16.1296264,23.4802785 17.9688791,23.4802785 L18.3806046,23.4802785 C20.2198573,23.4802785 21.7252785,24.9864946 21.7252785,26.8257473 L21.7252785,36.5625" id="Shape"></path>
                    <path d="M18.28125,0 L18.28125,7.44046875" id="Shape"></path>
                    <path d="M15.6249049,2.43697011 L20.9368003,2.43697011" id="Shape"></path>
                    <circle id="Oval" cx="18.28125" cy="15.8363315" r="2.55063179"></circle>
                </g>
                <circle id="Oval-2" cx="32.5" cy="32.5" r="32.5"></circle>
            </g>
        </g>
    </g>
</svg>