<?xml version="1.0" encoding="UTF-8"?>
<svg width="67px" height="67px" viewBox="0 0 67 67" version="1.1" xmlns="http://www.w3.org/2000/svg" xmlns:xlink="http://www.w3.org/1999/xlink">
    <!-- Generator: Sketch 40.1 (33804) - http://www.bohemiancoding.com/sketch -->
    <title>cocktail</title>
    <desc>Created with Sketch.</desc>
    <defs></defs>
    <g id="Page-1" stroke="none" stroke-width="1" fill="none" fill-rule="evenodd">
        <g id="Artboard" transform="translate(-13.000000, -5.000000)">
            <g id="cocktail" transform="translate(14.000000, 6.000000)">
                <circle id="Oval-2" stroke="#FFFFFF" cx="32.5" cy="32.5" r="32.5"></circle>
                <g id="noun_7265" transform="translate(18.000000, 12.000000)" fill="#FFFFFF">
                    <g id="Group">
                        <path d="M12.4534242,19.991266 L12.4534242,19.991266 C12.9376364,19.991266 13.2592727,19.9624787 13.498303,19.8111277 C14.5866818,19.1241596 14.5989848,17.6189362 14.2474697,16.4212128 C14.0809394,15.8537553 13.5901364,14.5443723 12.6252273,14.5443723 C12.3607121,14.5443723 12.1093788,14.6560319 11.9169242,14.8505638 C11.2402576,15.5340426 9.63031818,16.3047553 7.91009091,16.7644787 C6.78831818,17.0645638 6.69560606,17.6350745 6.74042424,17.9704894 C6.95177273,19.5529149 11.9235152,19.991266 12.4534242,19.991266 L12.4534242,19.991266 Z M12.5751364,16.2663723 C12.7715455,16.652383 12.9899242,17.3319362 12.9481818,17.9543511 C12.9367576,18.1262021 12.8932576,18.4210532 12.7333182,18.5610638 C12.6898182,18.5680426 12.603697,18.5772021 12.4538636,18.5772021 L12.4538636,18.5772021 C11.530697,18.576766 10.0582879,18.2819149 9.078,17.9774681 C10.3039091,17.5822979 11.6594394,16.9895426 12.5751364,16.2663723 L12.5751364,16.2663723 Z" id="Shape"></path>
                        <path d="M28.2125817,17.5989798 C28.2125817,14.0263096 22.7517938,11.2274053 15.7803696,11.2274053 C15.6432787,11.2274053 15.5022332,11.2260968 15.3567938,11.2243521 C14.5083241,11.2156287 13.4739908,11.2069053 12.1979908,11.4620649 C9.88194534,8.91264998 7.98024837,6.3074053 6.97974837,2.61827764 L6.94635443,2.52232019 C6.28462716,0.963011679 5.08947565,0.0444372107 3.66847565,0.00169252987 C2.29536959,-0.0419244914 0.961369585,0.76106487 0.34621807,1.9949904 C-0.270251627,3.23109679 -0.0567061724,4.63382019 0.932808979,5.84375636 L0.952142312,5.86687338 C3.37583928,8.59555423 4.69665746,11.2226074 5.40847565,13.5216606 C4.04371807,14.4267138 3.35079383,15.7949798 3.35079383,17.5994159 L3.35694534,17.6953734 C3.42241504,18.19915 3.5775211,18.6811181 3.80820292,19.139533 L8.11294534,36.339033 C8.82212716,39.055501 11.5722938,40.7207989 15.3181272,40.7207989 C15.3967787,40.7207989 15.4754302,40.7199266 15.5545211,40.7186181 C19.1970969,40.6514478 23.2658847,38.8583521 23.9935211,35.5739904 L27.9528999,18.9223202 C28.1225059,18.4966181 28.2125817,18.0543415 28.2125817,17.5989798 L28.2125817,17.5989798 Z M15.3418544,12.7151819 C15.4921272,12.7164904 15.6384453,12.7182351 15.7803696,12.7182351 C22.3189908,12.7182351 26.7217181,15.2419159 26.7217181,17.5989798 C26.7217181,18.330001 26.409309,19.0767244 25.5305211,19.759767 L25.5305211,19.3859691 C25.5305211,18.6850436 24.9329453,18.1795223 24.2263999,18.1795223 L22.9460059,18.1795223 C22.5900969,18.1795223 22.2688999,18.4050223 22.0364605,18.6379372 C21.8822332,18.5716393 21.7121878,18.6156925 21.5333544,18.6156925 L21.1365817,18.6156925 L21.1365817,17.2823202 C21.1365817,16.5813947 20.4291575,15.9986713 19.722612,15.9986713 L18.4422181,15.9986713 C17.9048393,15.9986713 17.4456726,16.3353947 17.2562938,16.8020968 C16.3155514,15.764884 15.3932635,14.8131606 14.5179908,13.9081074 C14.1484605,13.5260223 13.7855211,13.1513521 13.4287332,12.7775542 C14.1409908,12.7016606 14.7653696,12.7090755 15.3418544,12.7151819 L15.3418544,12.7151819 Z M7.57293019,16.8710117 L12.7112029,16.8710117 C13.1027029,16.8710117 13.4282938,16.3794478 13.4594908,15.9921287 L13.5214453,15.1298202 C14.7671272,16.4178308 16.0360969,17.6853415 17.3024302,19.1687564 C17.3925059,19.3462776 17.5216878,19.4758202 17.6807484,19.5935861 C17.7418241,19.6668627 17.8406878,19.7301074 17.9017635,19.8042564 C17.2352029,19.8483096 16.7426423,20.3826181 16.7426423,21.0551925 L16.7426423,22.3261925 C16.7426423,22.3711181 16.7136423,22.4129904 16.7175969,22.4566074 C16.4223241,22.4670755 16.1042029,22.4744904 15.7988241,22.4744904 C12.5565363,22.4744904 9.66136959,21.8202351 7.66564231,20.7564159 C7.66959686,20.6364691 7.67047565,20.6992776 7.67618777,20.5579585 C7.71485443,19.6472351 7.76494534,18.1795223 7.57293019,16.8710117 L7.57293019,16.8710117 Z M23.3335514,20.7965436 L23.3335514,19.488033 L23.7729453,19.488033 L23.7729453,20.7965436 L23.3335514,20.7965436 L23.3335514,20.7965436 Z M18.0515969,21.5258202 L18.9303847,21.5258202 L18.9303847,21.9619904 L18.0515969,21.9619904 L18.0515969,21.5258202 L18.0515969,21.5258202 Z M21.2530211,20.800033 L20.4827635,20.800033 C20.4801272,20.800033 20.4585969,20.7049478 20.4585969,20.7010223 L20.4585969,20.0114372 L21.2530211,20.0114372 L21.2530211,20.800033 L21.2530211,20.800033 Z M19.3790059,18.6156925 L18.5002181,18.6156925 L18.5002181,17.3071819 L19.3790059,17.3071819 L19.3790059,18.6156925 L19.3790059,18.6156925 Z M1.69208171,2.65622444 C2.04579383,1.94701168 2.84021807,1.4694053 3.62277868,1.49164998 C4.43126352,1.51607551 5.11188474,2.07132019 5.54336959,3.05706487 C6.78597565,7.59410742 9.22636959,10.5984478 12.1320817,13.6546925 L12.0182787,15.1263308 L7.33653625,15.1263308 C6.7675211,12.0731393 5.37683928,8.66446913 2.08973322,4.958767 C1.48556655,4.21378827 1.34408171,3.35366061 1.69208171,2.65622444 L1.69208171,2.65622444 Z M5.81579383,15.0892564 C6.2235514,17.0158202 6.22882413,18.6305223 6.19191504,19.7636925 C5.44362716,19.1055117 4.97171807,18.3566074 4.85264231,17.5496925 C4.86143019,16.4723521 5.16636959,15.6820117 5.81579383,15.0892564 L5.81579383,15.0892564 Z M22.5294605,35.242501 C21.9727484,37.7574585 18.5063696,39.1728308 15.5268393,39.2282244 C13.0679908,39.2652989 10.212809,38.4400649 9.56865746,35.9722138 L5.93926352,21.4730436 C8.16962716,23.0266819 11.660612,23.9653202 15.7799302,23.9653202 C19.9502181,23.9653202 23.5782938,22.9643096 25.8218393,21.3962776 L22.5294605,35.242501 L22.5294605,35.242501 Z" id="Shape"></path>
                    </g>
                </g>
            </g>
        </g>
    </g>
</svg>